<svg xmlns="http://www.w3.org/2000/svg" xmlns:xlink="http://www.w3.org/1999/xlink" width="200" zoomAndPan="magnify" viewBox="0 0 150 37.5" height="50" preserveAspectRatio="xMidYMid meet" version="1.0"><defs><g/><clipPath id="a97879d483"><path d="M 9 3.699219 L 25.214844 3.699219 L 25.214844 19 L 9 19 Z M 9 3.699219 " clip-rule="nonzero"/></clipPath><clipPath id="211008b59b"><path d="M 0.988281 11 L 17 11 L 17 27.03125 L 0.988281 27.03125 Z M 0.988281 11 " clip-rule="nonzero"/></clipPath></defs><g clip-path="url(#a97879d483)"><path fill="#67dcff" d="M 25.207031 15.386719 C 25.207031 17.328125 23.582031 18.898438 21.578125 18.898438 L 14.140625 18.898438 C 11.570312 18.898438 9.484375 16.878906 9.484375 14.394531 L 9.484375 7.210938 C 9.484375 5.269531 11.105469 3.699219 13.113281 3.699219 C 15.121094 3.699219 16.746094 5.269531 16.746094 7.210938 L 16.746094 11.878906 L 21.578125 11.878906 C 23.582031 11.878906 25.207031 13.457031 25.207031 15.386719 Z M 25.207031 15.386719 " fill-opacity="1" fill-rule="nonzero"/></g><g clip-path="url(#211008b59b)"><path fill="#587dff" d="M 0.992188 15.34375 C 0.992188 13.402344 2.617188 11.832031 4.625 11.832031 L 12.058594 11.832031 C 14.628906 11.832031 16.71875 13.851562 16.71875 16.335938 L 16.71875 23.519531 C 16.71875 25.460938 15.09375 27.03125 13.085938 27.03125 C 11.078125 27.03125 9.457031 25.460938 9.457031 23.519531 L 9.457031 18.851562 L 4.625 18.851562 C 2.617188 18.851562 0.992188 17.28125 0.992188 15.34375 Z M 0.992188 15.34375 " fill-opacity="1" fill-rule="nonzero"/></g><path fill="#2720ff" d="M 16.71875 16.335938 L 16.71875 18.898438 L 14.140625 18.898438 C 11.570312 18.898438 9.484375 16.878906 9.484375 14.394531 L 9.484375 11.832031 L 12.058594 11.832031 C 14.628906 11.832031 16.71875 13.851562 16.71875 16.335938 Z M 16.71875 16.335938 " fill-opacity="1" fill-rule="nonzero"/><g fill="#1a73e8" fill-opacity="1"><g transform="translate(26.770227, 24.628106)"><g><path d="M 13.859375 -17.265625 L 17.796875 -17.265625 L 18.671875 0 L 14.796875 0 L 14.296875 -9.390625 L 10.78125 0 L 8.953125 0 L 5.40625 -9.390625 L 4.9375 0 L 1.03125 0 L 1.90625 -17.265625 L 5.875 -17.265625 L 9.859375 -6.90625 Z M 13.859375 -17.265625 "/></g></g></g><g fill="#1a73e8" fill-opacity="1"><g transform="translate(46.469992, 24.628106)"><g><path d="M 12.625 -5.640625 L 4.609375 -5.640625 C 4.773438 -4.691406 5.125 -3.992188 5.65625 -3.546875 C 6.1875 -3.109375 6.863281 -2.890625 7.6875 -2.890625 C 8.21875 -2.890625 8.773438 -2.960938 9.359375 -3.109375 C 9.953125 -3.253906 10.488281 -3.484375 10.96875 -3.796875 L 11.765625 -0.890625 C 11.117188 -0.472656 10.425781 -0.175781 9.6875 0 C 8.945312 0.175781 8.164062 0.265625 7.34375 0.265625 C 6.0625 0.265625 4.925781 -0.0234375 3.9375 -0.609375 C 2.957031 -1.191406 2.1875 -2.007812 1.625 -3.0625 C 1.0625 -4.125 0.78125 -5.378906 0.78125 -6.828125 C 0.78125 -8.210938 1.039062 -9.429688 1.5625 -10.484375 C 2.082031 -11.546875 2.828125 -12.375 3.796875 -12.96875 C 4.765625 -13.570312 5.90625 -13.875 7.21875 -13.875 C 8.375 -13.875 9.382812 -13.617188 10.25 -13.109375 C 11.125 -12.609375 11.800781 -11.914062 12.28125 -11.03125 C 12.769531 -10.15625 13.015625 -9.140625 13.015625 -7.984375 C 13.015625 -7.554688 12.976562 -7.140625 12.90625 -6.734375 C 12.832031 -6.335938 12.738281 -5.972656 12.625 -5.640625 Z M 7.09375 -10.75 C 5.6875 -10.75 4.859375 -9.828125 4.609375 -7.984375 L 9.3125 -8.015625 C 9.300781 -8.929688 9.097656 -9.613281 8.703125 -10.0625 C 8.304688 -10.519531 7.769531 -10.75 7.09375 -10.75 Z M 7.09375 -10.75 "/></g></g></g><g fill="#1a73e8" fill-opacity="1"><g transform="translate(60.277085, 24.628106)"><g><path d="M 6.34375 0.296875 C 5.300781 0.296875 4.375 0.0078125 3.5625 -0.5625 C 2.75 -1.144531 2.101562 -1.96875 1.625 -3.03125 C 1.144531 -4.101562 0.90625 -5.378906 0.90625 -6.859375 C 0.90625 -8.335938 1.140625 -9.601562 1.609375 -10.65625 C 2.078125 -11.707031 2.722656 -12.507812 3.546875 -13.0625 C 4.367188 -13.625 5.304688 -13.90625 6.359375 -13.90625 C 7.066406 -13.90625 7.738281 -13.773438 8.375 -13.515625 C 9.019531 -13.265625 9.585938 -12.84375 10.078125 -12.25 L 10.078125 -18.203125 L 13.859375 -18.203125 L 13.859375 0 L 10.078125 0 L 10.078125 -1.359375 C 9.585938 -0.785156 9.015625 -0.363281 8.359375 -0.09375 C 7.710938 0.164062 7.039062 0.296875 6.34375 0.296875 Z M 7.34375 -3.03125 C 8.195312 -3.03125 8.863281 -3.382812 9.34375 -4.09375 C 9.832031 -4.800781 10.078125 -5.679688 10.078125 -6.734375 C 10.078125 -7.953125 9.832031 -8.890625 9.34375 -9.546875 C 8.863281 -10.210938 8.195312 -10.546875 7.34375 -10.546875 C 6.59375 -10.546875 5.96875 -10.234375 5.46875 -9.609375 C 4.976562 -8.984375 4.734375 -8.066406 4.734375 -6.859375 C 4.734375 -5.585938 4.972656 -4.628906 5.453125 -3.984375 C 5.941406 -3.347656 6.570312 -3.03125 7.34375 -3.03125 Z M 7.34375 -3.03125 "/></g></g></g><g fill="#1a73e8" fill-opacity="1"><g transform="translate(75.538853, 24.628106)"><g><path d="M 5.25 -15.140625 L 1.3125 -15.140625 L 1.3125 -18.296875 L 5.25 -18.296875 Z M 5.203125 0 L 1.375 0 L 1.375 -13.609375 L 5.203125 -13.609375 Z M 5.203125 0 "/></g></g></g><g fill="#1a73e8" fill-opacity="1"><g transform="translate(82.097224, 24.628106)"><g><path d="M 18.203125 -3.1875 L 18.203125 -0.03125 C 17.066406 -0.03125 16 -0.00390625 15 0.046875 C 14.007812 0.0976562 13.03125 0.144531 12.0625 0.1875 C 11.101562 0.238281 10.097656 0.273438 9.046875 0.296875 L 8.90625 0.296875 C 7.34375 0.296875 5.96875 -0.0546875 4.78125 -0.765625 C 3.601562 -1.484375 2.6875 -2.515625 2.03125 -3.859375 C 1.382812 -5.203125 1.0625 -6.789062 1.0625 -8.625 C 1.0625 -10.46875 1.390625 -12.054688 2.046875 -13.390625 C 2.703125 -14.722656 3.617188 -15.75 4.796875 -16.46875 C 5.972656 -17.195312 7.347656 -17.5625 8.921875 -17.5625 C 10.503906 -17.5625 11.878906 -17.203125 13.046875 -16.484375 C 14.222656 -15.765625 15.140625 -14.738281 15.796875 -13.40625 C 16.460938 -12.082031 16.796875 -10.488281 16.796875 -8.625 C 16.796875 -7.445312 16.65625 -6.367188 16.375 -5.390625 C 16.09375 -4.410156 15.6875 -3.539062 15.15625 -2.78125 C 15.519531 -2.914062 15.925781 -3.023438 16.375 -3.109375 C 16.832031 -3.203125 17.441406 -3.226562 18.203125 -3.1875 Z M 5.203125 -8.625 C 5.203125 -7.019531 5.515625 -5.726562 6.140625 -4.75 C 6.773438 -3.769531 7.703125 -3.28125 8.921875 -3.28125 C 10.046875 -3.28125 10.945312 -3.726562 11.625 -4.625 C 12.3125 -5.53125 12.65625 -6.863281 12.65625 -8.625 C 12.65625 -10.238281 12.335938 -11.535156 11.703125 -12.515625 C 11.066406 -13.492188 10.140625 -13.984375 8.921875 -13.984375 C 7.785156 -13.984375 6.878906 -13.53125 6.203125 -12.625 C 5.535156 -11.71875 5.203125 -10.382812 5.203125 -8.625 Z M 5.203125 -8.625 "/></g></g></g><g fill="#1a73e8" fill-opacity="1"><g transform="translate(99.972479, 24.628106)"><g><path d="M 9.46875 -5.171875 L 9.46875 -13.609375 L 13.265625 -13.609375 L 13.265625 0 L 9.46875 0 L 9.46875 -1.71875 C 9.070312 -1.113281 8.554688 -0.625 7.921875 -0.25 C 7.296875 0.113281 6.554688 0.296875 5.703125 0.296875 C 4.316406 0.296875 3.222656 -0.144531 2.421875 -1.03125 C 1.628906 -1.914062 1.234375 -3.207031 1.234375 -4.90625 L 1.234375 -13.609375 L 5.046875 -13.609375 L 5.046875 -5.453125 C 5.046875 -3.898438 5.691406 -3.125 6.984375 -3.125 C 7.535156 -3.125 8.03125 -3.3125 8.46875 -3.6875 C 8.914062 -4.070312 9.25 -4.566406 9.46875 -5.171875 Z M 9.46875 -5.171875 "/></g></g></g><g fill="#1a73e8" fill-opacity="1"><g transform="translate(114.617855, 24.628106)"><g><path d="M 5.25 -15.140625 L 1.3125 -15.140625 L 1.3125 -18.296875 L 5.25 -18.296875 Z M 5.203125 0 L 1.375 0 L 1.375 -13.609375 L 5.203125 -13.609375 Z M 5.203125 0 "/></g></g></g><g fill="#1a73e8" fill-opacity="1"><g transform="translate(121.176226, 24.628106)"><g><path d="M 7.375 0.265625 C 6.09375 0.265625 4.957031 -0.015625 3.96875 -0.578125 C 2.976562 -1.148438 2.195312 -1.960938 1.625 -3.015625 C 1.0625 -4.078125 0.78125 -5.34375 0.78125 -6.8125 C 0.78125 -8.269531 1.070312 -9.53125 1.65625 -10.59375 C 2.25 -11.65625 3.039062 -12.472656 4.03125 -13.046875 C 5.019531 -13.617188 6.132812 -13.90625 7.375 -13.90625 C 8.113281 -13.90625 8.828125 -13.804688 9.515625 -13.609375 C 10.203125 -13.410156 10.878906 -13.09375 11.546875 -12.65625 L 10.28125 -9.671875 C 9.820312 -9.992188 9.390625 -10.222656 8.984375 -10.359375 C 8.585938 -10.503906 8.148438 -10.578125 7.671875 -10.578125 C 6.765625 -10.578125 6.03125 -10.253906 5.46875 -9.609375 C 4.914062 -8.972656 4.640625 -8.046875 4.640625 -6.828125 C 4.640625 -5.597656 4.914062 -4.65625 5.46875 -4 C 6.03125 -3.351562 6.765625 -3.03125 7.671875 -3.03125 C 8.535156 -3.03125 9.421875 -3.316406 10.328125 -3.890625 L 11.546875 -0.96875 C 10.835938 -0.5 10.148438 -0.175781 9.484375 0 C 8.816406 0.175781 8.113281 0.265625 7.375 0.265625 Z M 7.375 0.265625 "/></g></g></g><g fill="#1a73e8" fill-opacity="1"><g transform="translate(133.109502, 24.628106)"><g><path d="M 9.34375 -13.609375 L 13.578125 -13.609375 L 8.359375 -6.90625 L 13.578125 0 L 9.375 0 L 5.203125 -5.796875 L 5.203125 0 L 1.40625 0 L 1.40625 -18.203125 L 5.203125 -18.203125 L 5.203125 -7.984375 Z M 9.34375 -13.609375 "/></g></g></g></svg>